<?xml version="1.0" encoding="utf-8"?>
<!-- Generator: Adobe Illustrator 19.2.1, SVG Export Plug-In . SVG Version: 6.00 Build 0)  -->
<svg version="1.1" id="Layer_1" xmlns="http://www.w3.org/2000/svg" xmlns:xlink="http://www.w3.org/1999/xlink" x="0px" y="0px"
	 viewBox="0 0 600 600" style="enable-background:new 0 0 600 600;" xml:space="preserve">
<style type="text/css">
	.st0{opacity:0.22;fill:#D458A0;stroke:#000000;stroke-miterlimit:10;enable-background:new    ;}
</style>
<image style="overflow:visible;enable-background:new    ;" width="790" height="790" xlink:href="D7D25397DE119E5B.jpeg"  transform="matrix(1 0 0 1 -95 -95)">
</image>
<a xlink:href="#" >
	<path class="st0" d="M300,424h-20l-9-21l-9-16h-25l-9,13.5l-1,22.5l-1,16l-12-9l-5-14.5h-12l-21-9.5l-16,9.5l-9,17.5l-4,24l3,22
		l13,18l26,17l23,9h22h25l20-7l8-32l13-1l7,16l11,15l21,9h32l26-5l19-17l15-20l12-26l2-16l-3-14l-11-13l-17-9l-23-2l-20,10l-7-13
		l-18-23h-23l-4,22l-3,21L300,424L300,424L300,424L300,424z"/>
</a>
</svg>
