<?xml version="1.0" encoding="utf-8"?>
<!-- Generator: Adobe Illustrator 15.1.0, SVG Export Plug-In . SVG Version: 6.00 Build 0)  -->
<!DOCTYPE svg PUBLIC "-//W3C//DTD SVG 1.1//EN" "http://www.w3.org/Graphics/SVG/1.1/DTD/svg11.dtd">
<svg version="1.1" id="Layer_1" xmlns="http://www.w3.org/2000/svg" xmlns:xlink="http://www.w3.org/1999/xlink" x="0px" y="0px"
	 width="1024px" height="768px" viewBox="0 0 1024 768" enable-background="new 0 0 1024 768" xml:space="preserve">
<rect x="-23" y="-15" fill="#CCCCCC" width="1058" height="805"/>
<rect x="570" y="309" fill="#96C7D0" width="60" height="61"/>
<rect x="115" y="714" fill="#6EB1BD" width="60" height="60"/>
<rect x="997" y="485" fill="#ABD2D9" width="61" height="60"/>
<rect x="237" y="714" fill="#2E8EA0" width="61" height="60"/>
<rect x="298" y="714" fill="#7FD6A0" width="62" height="60"/>
<rect x="423" y="714" fill="#96C7D0" width="60" height="60"/>
<rect x="482" y="714" fill="#4299AA" width="62" height="60"/>
<rect x="543" y="714" fill="#0DB14B" width="60" height="60"/>
<rect x="662" y="714" fill="#63ABB9" width="61" height="60"/>
<rect x="601" y="714" fill="#96C7D0" width="61" height="60"/>
<rect x="854" y="712" fill="#70B2BE" width="60" height="60"/>
<rect x="969" y="712" fill="#479CAC" width="58" height="60"/>
<rect x="174" y="657" fill="#6BAFBC" width="58" height="57"/>
<rect x="231" y="657" fill="#ABD2D9" width="58" height="57"/>
<rect x="347" y="657" fill="#1C8598" width="56" height="57"/>
<rect x="402" y="657" fill="#178296" width="57" height="57"/>
<rect x="459" y="657" fill="#69AEBB" width="58" height="57"/>
<rect x="515" y="657" fill="#85BDC8" width="58" height="57"/>
<rect x="627" y="657" fill="#298B9E" width="59" height="57"/>
<rect x="742" y="657" fill="#69AEBB" width="58" height="57"/>
<rect x="800" y="657" fill="#00758C" width="56" height="57"/>
<rect x="855" y="657" fill="#70B2BE" width="57" height="57"/>
<rect x="912" y="656" fill="#4A9DAD" width="57" height="57"/>
<rect x="-6" y="599" fill="#6BAFBC" width="61" height="56"/>
<rect x="115" y="601" fill="#2E8EA0" width="57" height="56"/>
<rect x="172" y="601" fill="#ABD2D9" width="57" height="56"/>
<rect x="228" y="601" fill="#178296" width="58" height="56"/>
<rect x="286" y="601" fill="#69AEBB" width="58" height="56"/>
<rect x="400" y="601" fill="#7DB9C4" width="57" height="56"/>
<rect x="457" y="601" fill="#298B9E" width="58" height="56"/>
<rect x="480" y="319" fill="#85BDC8" width="57" height="57"/>
<rect x="571" y="601" fill="#69AEBB" width="56" height="56"/>
<rect x="627" y="601" fill="#00758C" width="58" height="56"/>
<rect x="685" y="601" fill="#70B2BE" width="57" height="56"/>
<rect x="800" y="601" fill="#4A9DAD" width="56" height="56"/>
<rect x="656" y="545" fill="#6BAFBC" width="57" height="57"/>
<rect x="713" y="545" fill="#ABD2D9" width="57" height="57"/>
<rect x="769" y="545" fill="#2E8EA0" width="58" height="57"/>
<rect x="885" y="545" fill="#178296" width="56" height="57"/>
<rect x="941" y="545" fill="#69AEBB" width="58" height="57"/>
<rect x="499" y="542" fill="#4299AA" width="61" height="60"/>
<rect x="560" y="542" fill="#0DB14B" width="61" height="60"/>
<rect x="399" y="487" fill="#85BDC8" width="58" height="57"/>
<rect x="591" y="485" fill="#7DB9C4" width="57" height="57"/>
<rect x="344" y="544" fill="#63ABB9" width="56" height="57"/>
<rect x="828" y="485" fill="#69AEBB" width="58" height="57"/>
<rect x="55" y="544" fill="#0DB14B" width="60" height="56"/>
<rect x="115" y="544" fill="#178296" width="57" height="57"/>
<rect x="885" y="429" fill="#69AEBB" width="56" height="57"/>
<rect x="456" y="427" fill="#0DB14B" width="60" height="60"/>
<rect x="55" y="654" fill="#2E8EA0" width="61" height="60"/>
<rect x="-6" y="713" fill="#6EB1BD" width="61" height="60"/>
<rect x="-4" y="654" fill="#ABD2D9" width="61" height="60"/>
<rect x="55" y="714" fill="#2E8EA0" width="61" height="60"/>
<rect x="800" y="714" fill="#0DB14B" width="56" height="57"/>
<rect x="116" y="487" fill="#6BAFBC" width="57" height="57"/>
<rect x="172" y="487" fill="#ABD2D9" width="57" height="57"/>
<rect x="287" y="543" fill="#1C8598" width="57" height="57"/>
<rect x="344" y="487" fill="#178296" width="56" height="57"/>
<rect x="647" y="430" fill="#69AEBB" width="57" height="57"/>
<rect x="-2" y="375" fill="#6BAFBC" width="58" height="57"/>
<rect x="58" y="430" fill="#2E8EA0" width="58" height="57"/>
<rect x="116" y="430" fill="#1C8598" width="56" height="57"/>
<rect x="171" y="430" fill="#178296" width="57" height="57"/>
<rect x="228" y="430" fill="#69AEBB" width="59" height="57"/>
<rect x="344" y="430" fill="#7DB9C4" width="56" height="57"/>
<rect x="536" y="376" fill="#298B9E" width="58" height="57"/>
<rect x="-6" y="486" fill="#2E8EA0" width="61" height="60"/>
<rect x="939" y="426" fill="#0DB14B" width="61" height="60"/>
<rect x="722" y="714" fill="#ABD2D9" width="57" height="57"/>
<rect x="969" y="657" fill="#69AEBB" width="58" height="57"/>
<rect x="997" y="601" fill="#7FD6A0" width="61" height="56"/>
<rect x="940" y="602" fill="#ABD2D9" width="57" height="55"/>
<rect x="912" y="713" fill="#ABD2D9" width="57" height="56"/>
<rect x="936" y="172" fill="#ABD2D9" width="61" height="61"/>
</svg>
