<?xml version="1.0" encoding="utf-8"?>
<!-- Generator: Adobe Illustrator 15.1.0, SVG Export Plug-In . SVG Version: 6.00 Build 0)  -->
<!DOCTYPE svg PUBLIC "-//W3C//DTD SVG 1.1//EN" "http://www.w3.org/Graphics/SVG/1.1/DTD/svg11.dtd">
<svg version="1.1" id="Layer_1" xmlns="http://www.w3.org/2000/svg" xmlns:xlink="http://www.w3.org/1999/xlink" x="0px" y="0px"
	 width="25.031px" height="25.052px" viewBox="0 0 25.031 25.052" enable-background="new 0 0 25.031 25.052" xml:space="preserve">
<g id="Loupe">
	<path fill="#00FF18" stroke="#FFFF18" stroke-miterlimit="10" d="M12.5,24.531c6.613,0,12-5.387,12-12c0-6.613-5.387-12-12-12H2
		c-0.829,0-1.5,0.671-1.5,1.5v10.5C0.5,19.144,5.887,24.531,12.5,24.531z M12.5,22.281c-5.397,0-9.75-4.352-9.75-9.75
		s4.353-9.75,9.75-9.75c5.398,0,9.75,4.352,9.75,9.75S17.898,22.281,12.5,22.281z"/>
</g>
<g id="Brain">
	<path fill="#00FF18" stroke="#FFFF18" stroke-width="0.5" stroke-miterlimit="10" d="M13.821,20.984
		c3.29,0,5.617-2.566,6.487-5.696c-0.12-0.071-0.264-0.114-0.412-0.114c-0.146,0-0.267-0.119-0.267-0.266
		c0-0.145,0.118-0.265,0.267-0.265c0.256,0,0.481-0.124,0.627-0.313c0.105-0.592,0.165-1.196,0.165-1.799
		c0-0.788-0.047-1.582-0.165-2.344c-0.146-0.185-0.375-0.297-0.627-0.297c-0.146,0-0.267-0.118-0.267-0.264
		c0-0.146,0.118-0.265,0.267-0.265c0.158,0,0.305-0.052,0.429-0.132c-0.675-2.879-2.35-5.15-5.449-5.15
		c-1.167,0-2.113,0.946-2.113,2.112v5.018c0,0.438,0.356,0.793,0.793,0.793h1.583c0.146,0,0.265,0.118,0.265,0.264
		c0,0.146-0.118,0.265-0.265,0.265h-1.583c-0.437,0-0.793,0.355-0.793,0.792v3.171c0,0.436,0.356,0.792,0.793,0.792
		c0.146,0,0.264,0.118,0.264,0.265s-0.118,0.264-0.264,0.264c-0.437,0-0.793,0.356-0.793,0.793v1.321
		C12.764,20.511,13.236,20.984,13.821,20.984L13.821,20.984L13.821,20.984z M11.179,20.984c0.584,0,1.057-0.473,1.057-1.057v-1.32
		c0-0.438-0.355-0.794-0.792-0.794c-0.146,0-0.265-0.118-0.265-0.265c0-0.146,0.119-0.266,0.265-0.266
		c0.437,0,0.792-0.354,0.792-0.793v-3.167c0-0.437-0.355-0.792-0.792-0.792H9.858c-0.145,0-0.264-0.119-0.264-0.264
		c0-0.146,0.118-0.265,0.264-0.265h1.585c0.437,0,0.792-0.356,0.792-0.793V6.192c0-1.167-0.946-2.112-2.113-2.112
		c-3.099,0-4.772,2.271-5.447,5.149C4.8,9.31,4.946,9.362,5.104,9.362c0.146,0,0.265,0.119,0.265,0.264
		c0,0.145-0.119,0.265-0.265,0.265c-0.251,0-0.482,0.113-0.627,0.297c-0.117,0.762-0.166,1.557-0.166,2.345
		c0,0.605,0.06,1.208,0.166,1.799c0.144,0.189,0.37,0.314,0.627,0.314c0.146,0,0.265,0.117,0.265,0.264s-0.119,0.266-0.265,0.266
		c-0.149,0-0.293,0.045-0.413,0.113C5.562,18.417,7.89,20.984,11.179,20.984L11.179,20.984z M14.085,19.925
		c-0.146,0-0.266-0.117-0.266-0.264c0-0.437,0.356-0.793,0.794-0.793c0.728,0,1.32-0.593,1.32-1.32c0-0.73-0.593-1.323-1.32-1.323
		c-0.146,0-0.266-0.116-0.266-0.264c0-0.146,0.119-0.265,0.266-0.265c1.018,0,1.85,0.83,1.85,1.85s-0.83,1.849-1.85,1.849
		c-0.146,0-0.266,0.118-0.266,0.264C14.35,19.808,14.231,19.925,14.085,19.925z M10.916,19.925c-0.146,0-0.265-0.117-0.265-0.264
		c0-0.145-0.119-0.264-0.264-0.264c-1.019,0-1.85-0.829-1.85-1.85c0-1.021,0.83-1.85,1.85-1.85c0.145,0,0.264,0.117,0.264,0.266
		c0,0.145-0.119,0.264-0.264,0.264c-0.728,0-1.321,0.594-1.321,1.321s0.593,1.319,1.321,1.319c0.437,0,0.792,0.356,0.792,0.793
		C11.179,19.808,11.061,19.925,10.916,19.925z M13.557,15.171c-0.146,0-0.265-0.118-0.265-0.264c0-0.728,0.594-1.321,1.321-1.321
		h1.584c0.729,0,1.321-0.592,1.321-1.32c0-0.729-0.593-1.322-1.321-1.322c-0.145,0-0.266-0.119-0.266-0.264
		c0-0.146,0.117-0.265,0.266-0.265c1.019,0,1.849,0.829,1.849,1.85c0,1.019-0.828,1.849-1.849,1.849h-1.584
		c-0.438,0-0.794,0.356-0.794,0.792C13.821,15.053,13.703,15.171,13.557,15.171z M11.444,15.171c-0.146,0-0.265-0.118-0.265-0.264
		c0-0.438-0.355-0.793-0.792-0.793H8.802c-1.019,0-1.849-0.83-1.849-1.849c0-1.02,0.829-1.85,1.849-1.85
		c0.146,0,0.265,0.119,0.265,0.265c0,0.145-0.119,0.264-0.265,0.264c-0.728,0-1.32,0.592-1.32,1.322c0,0.728,0.592,1.32,1.32,1.32
		h1.585c0.728,0,1.321,0.594,1.321,1.32C11.708,15.053,11.59,15.171,11.444,15.171z M14.613,10.946
		c-0.728,0-1.321-0.592-1.321-1.321c0-0.728,0.594-1.32,1.321-1.32h0.792c0.291,0,0.528-0.237,0.528-0.528V6.984
		c0-0.145,0.119-0.264,0.266-0.264c0.146,0,0.265,0.119,0.265,0.264v0.792c0,0.583-0.475,1.056-1.057,1.056h-0.794
		c-0.436,0-0.792,0.356-0.792,0.792c0,0.438,0.356,0.793,0.792,0.793c0.146,0,0.266,0.118,0.266,0.265
		C14.877,10.828,14.759,10.946,14.613,10.946z M10.388,10.946c-0.146,0-0.265-0.118-0.265-0.264c0-0.146,0.119-0.265,0.265-0.265
		c0.437,0,0.792-0.356,0.792-0.793c0-0.437-0.355-0.793-0.792-0.793H9.595c-0.583,0-1.057-0.473-1.057-1.056V6.984
		c0-0.145,0.119-0.264,0.265-0.264c0.146,0,0.265,0.119,0.265,0.264v0.792c0,0.291,0.237,0.528,0.528,0.528h0.793
		c0.728,0,1.321,0.592,1.321,1.32C11.709,10.354,11.115,10.946,10.388,10.946z M14.613,7.249c-0.438,0-0.794-0.355-0.794-0.793
		c0-0.146,0.118-0.265,0.266-0.265c0.146,0,0.265,0.119,0.265,0.265s0.118,0.265,0.264,0.265s0.266-0.119,0.266-0.265
		c0-0.728,0.593-1.32,1.321-1.32c0.728,0,1.321,0.592,1.321,1.32c0,0.146-0.119,0.265-0.266,0.265s-0.265-0.119-0.265-0.265
		c0-0.438-0.356-0.793-0.792-0.793c-0.438,0-0.794,0.355-0.794,0.793S15.051,7.249,14.613,7.249z M10.388,7.249
		c-0.438,0-0.793-0.355-0.793-0.793S9.24,5.663,8.802,5.663c-0.437,0-0.792,0.355-0.792,0.793c0,0.146-0.119,0.265-0.264,0.265
		c-0.146,0-0.265-0.119-0.265-0.265c0-0.728,0.593-1.32,1.321-1.32c0.729,0,1.321,0.592,1.321,1.32c0,0.146,0.118,0.265,0.265,0.265
		c0.145,0,0.264-0.119,0.264-0.265s0.118-0.265,0.265-0.265c0.145,0,0.264,0.119,0.264,0.265
		C11.179,6.894,10.825,7.249,10.388,7.249z"/>
</g>
<g id="Number" display="none">
	
		<text transform="matrix(1.1841 0 0 1 21.4678 15.0806)" display="inline" fill="#FFFFFF" font-family="'Menlo-Regular'" font-size="18.9847">1</text>
	
		<text transform="matrix(1.1841 0 0 1 21.4678 15.0806)" display="inline" fill="none" stroke="#000000" stroke-miterlimit="10" font-family="'Menlo-Regular'" font-size="18.9847">1</text>
</g>
</svg>
