<?xml version="1.0" encoding="utf-8"?>
<!-- Generator: Adobe Illustrator 19.1.0, SVG Export Plug-In . SVG Version: 6.00 Build 0)  -->
<svg version="1.1"
	 id="svg2374" inkscape:export-ydpi="59.668053" sodipodi:docname="Crosshairs.svg" inkscape:version="0.48.0 r9654" sodipodi:version="0.32" inkscape:export-xdpi="59.668053" inkscape:export-filename="C:\drive-h\home\High5\FB Galactic Empire\Coat of Arms\crosshairs2.png" inkscape:output_extension="org.inkscape.output.svg.inkscape" xmlns:rdf="http://www.w3.org/1999/02/22-rdf-syntax-ns#" xmlns:svg="http://www.w3.org/2000/svg" xmlns:sodipodi="http://sodipodi.sourceforge.net/DTD/sodipodi-0.dtd" xmlns:inkscape="http://www.inkscape.org/namespaces/inkscape" xmlns:osb="http://www.openswatchbook.org/uri/2009/osb" xmlns:cc="http://creativecommons.org/ns#" xmlns:dc="http://purl.org/dc/elements/1.1/"
	 xmlns="http://www.w3.org/2000/svg" xmlns:xlink="http://www.w3.org/1999/xlink" x="0px" y="0px" viewBox="-217 307.1 176.1 178.9"
	 style="enable-background:new -217 307.1 176.1 178.9;" xml:space="preserve">
<style type="text/css">
	.st0{fill:none;stroke:#00FF00;stroke-width:12;}
	.st1{fill:none;stroke:#00FF00;stroke-width:12;stroke-linecap:round;}
	.st2{fill:none;stroke:#00FF00;stroke-miterlimit:10;}
</style>
<sodipodi:namedview  fit-margin-bottom="0" fit-margin-right="0" inkscape:window-maximized="0" inkscape:window-y="42" inkscape:window-x="172" inkscape:window-height="907" inkscape:window-width="1414" inkscape:current-layer="layer1" inkscape:document-units="px" inkscape:pageshadow="2" inkscape:pageopacity="0.0" showgrid="false" inkscape:cx="45.171863" inkscape:zoom="1.3877203" borderopacity="1.0" bordercolor="#666666" inkscape:cy="89.896242" fit-margin-top="0" id="base" pagecolor="#ffffff" fit-margin-left="0">
	</sodipodi:namedview>
<g id="layer1" transform="translate(-180.16863,-248.47568)" inkscape:groupmode="layer" inkscape:label="Ebene 1">
	
		<path id="path3006" sodipodi:ry="64.438782" sodipodi:rx="61.574837" sodipodi:type="arc" sodipodi:cx="185.67915" sodipodi:cy="179.95126" class="st0" d="
		M117.1,645c0,38.1-29.5,68.9-65.9,68.9s-65.9-30.9-65.9-68.9s29.5-68.9,65.9-68.9S117.1,606.9,117.1,645z"/>
	
		<path id="path3006-5" sodipodi:ry="64.438782" sodipodi:rx="61.574837" sodipodi:type="arc" sodipodi:cx="185.67915" sodipodi:cy="179.95126" class="st0" d="
		M98.3,645c0,27.2-21.1,49.2-47,49.2s-47-22-47-49.2c0-27.2,21.1-49.2,47-49.2S98.3,617.8,98.3,645z"/>
	
		<path id="path3006-5-9" sodipodi:ry="64.438782" sodipodi:rx="61.574837" sodipodi:type="arc" sodipodi:cx="185.67915" sodipodi:cy="179.95126" class="st0" d="
		M79.5,645c0,16.3-12.6,29.5-28.2,29.5S23,661.3,23,645c0-16.3,12.6-29.5,28.2-29.5S79.5,628.7,79.5,645z"/>
	<rect id="rect3853" x="50.3" y="556.2" class="st1" width="1.8" height="58.8"/>
	<rect id="rect3853-1" x="50.3" y="675.1" class="st0" width="1.8" height="58.8"/>
	<rect id="rect3853-4" x="79.9" y="644.1" class="st0" width="58.8" height="1.8"/>
	<rect id="rect3853-1-8" x="-36.2" y="644.1" class="st0" width="58.8" height="1.8"/>
	<rect id="rect3894" x="21.2" y="644.9" class="st2" width="60" height="0.3"/>
	<rect id="rect3894-5" x="51.1" y="615" class="st2" width="0.3" height="60"/>
	<rect id="rect3928" x="49.7" y="639.2" class="st2" width="3" height="1"/>
	<rect id="rect3928-3" x="49.7" y="621.2" class="st2" width="3" height="1"/>
	<rect id="rect3928-30" x="49.7" y="627.2" class="st2" width="3" height="1"/>
	<rect id="rect3928-4" x="49.7" y="633.2" class="st2" width="3" height="1"/>
	<rect id="rect3928-6" x="49.7" y="667.8" class="st2" width="3" height="1"/>
	<rect id="rect3928-3-2" x="49.7" y="649.8" class="st2" width="3" height="1"/>
	<rect id="rect3928-30-3" x="49.7" y="655.8" class="st2" width="3" height="1"/>
	<rect id="rect3928-4-9" x="49.7" y="661.8" class="st2" width="3" height="1"/>
	<rect id="rect3928-8" x="56" y="643.5" class="st2" width="1" height="3"/>
	<rect id="rect3928-3-1" x="74" y="643.5" class="st2" width="1" height="3"/>
	<rect id="rect3928-30-9" x="68" y="643.5" class="st2" width="1" height="3"/>
	<rect id="rect3928-4-2" x="62" y="643.5" class="st2" width="1" height="3"/>
	<rect id="rect3928-6-4" x="27.4" y="643.5" class="st2" width="1" height="3"/>
	<rect id="rect3928-3-2-7" x="45.4" y="643.5" class="st2" width="1" height="3"/>
	<rect id="rect3928-30-3-5" x="39.4" y="643.5" class="st2" width="1" height="3"/>
	<rect id="rect3928-4-9-8" x="33.4" y="643.5" class="st2" width="1" height="3"/>
</g>
</svg>
