<?xml version="1.0" encoding="utf-8"?>
<!-- Generator: Adobe Illustrator 15.1.0, SVG Export Plug-In . SVG Version: 6.00 Build 0)  -->
<!DOCTYPE svg PUBLIC "-//W3C//DTD SVG 1.1//EN" "http://www.w3.org/Graphics/SVG/1.1/DTD/svg11.dtd">
<svg version="1.1" id="Layer_1" xmlns="http://www.w3.org/2000/svg" xmlns:xlink="http://www.w3.org/1999/xlink" x="0px" y="0px"
	 width="24px" height="24px" viewBox="0 0 24 24" enable-background="new 0 0 24 24" xml:space="preserve">
<g id="Loupe">
	<path fill="#F5F200" d="M12,24c6.613,0,12-5.387,12-12c0-6.613-5.387-12-12-12H1.5C0.671,0,0,0.671,0,1.5V12
		C0,18.613,5.387,24,12,24z M12,21.75c-5.397,0-9.75-4.352-9.75-9.75S6.603,2.25,12,2.25c5.398,0,9.75,4.352,9.75,9.75
		S17.398,21.75,12,21.75z"/>
</g>
<g id="Brain" opacity="0.64">
	<path fill="#F5F200" d="M13.321,20.453c3.29,0,5.617-2.566,6.487-5.696c-0.12-0.071-0.264-0.114-0.412-0.114
		c-0.146,0-0.267-0.119-0.267-0.266c0-0.145,0.118-0.265,0.267-0.265c0.256,0,0.481-0.124,0.627-0.314
		c0.105-0.592,0.165-1.196,0.165-1.799c0-0.788-0.047-1.582-0.165-2.344c-0.146-0.185-0.375-0.297-0.627-0.297
		c-0.146,0-0.267-0.118-0.267-0.264c0-0.146,0.118-0.265,0.267-0.265c0.158,0,0.305-0.052,0.429-0.132
		c-0.675-2.879-2.35-5.15-5.449-5.15c-1.167,0-2.113,0.946-2.113,2.112v5.018c0,0.438,0.356,0.793,0.793,0.793h1.583
		c0.146,0,0.265,0.118,0.265,0.264c0,0.146-0.118,0.265-0.265,0.265h-1.583c-0.437,0-0.793,0.355-0.793,0.792v3.171
		c0,0.436,0.356,0.792,0.793,0.792c0.146,0,0.264,0.118,0.264,0.265s-0.118,0.264-0.264,0.264c-0.437,0-0.793,0.356-0.793,0.793
		v1.321C12.264,19.98,12.736,20.453,13.321,20.453L13.321,20.453L13.321,20.453z M10.679,20.453c0.584,0,1.057-0.473,1.057-1.057
		v-1.32c0-0.438-0.355-0.794-0.792-0.794c-0.146,0-0.265-0.118-0.265-0.265c0-0.146,0.119-0.266,0.265-0.266
		c0.437,0,0.792-0.354,0.792-0.793v-3.167c0-0.437-0.355-0.792-0.792-0.792H9.358c-0.145,0-0.264-0.119-0.264-0.264
		c0-0.146,0.118-0.265,0.264-0.265h1.585c0.437,0,0.792-0.356,0.792-0.793V5.661c0-1.167-0.946-2.112-2.113-2.112
		c-3.099,0-4.772,2.271-5.447,5.149C4.3,8.779,4.446,8.831,4.604,8.831c0.146,0,0.265,0.119,0.265,0.264
		c0,0.145-0.119,0.265-0.265,0.265c-0.251,0-0.482,0.113-0.627,0.297c-0.117,0.762-0.166,1.557-0.166,2.345
		c0,0.605,0.06,1.208,0.166,1.799c0.144,0.189,0.37,0.314,0.627,0.314c0.146,0,0.265,0.117,0.265,0.264s-0.119,0.266-0.265,0.266
		c-0.149,0-0.293,0.045-0.413,0.113C5.062,17.886,7.39,20.453,10.679,20.453L10.679,20.453z M13.585,19.394
		c-0.146,0-0.266-0.117-0.266-0.264c0-0.437,0.356-0.793,0.794-0.793c0.727,0,1.32-0.593,1.32-1.32c0-0.73-0.593-1.323-1.32-1.323
		c-0.146,0-0.266-0.116-0.266-0.264c0-0.146,0.119-0.265,0.266-0.265c1.017,0,1.849,0.83,1.849,1.85s-0.83,1.849-1.849,1.849
		c-0.146,0-0.266,0.118-0.266,0.264C13.85,19.277,13.731,19.394,13.585,19.394z M10.416,19.394c-0.146,0-0.265-0.117-0.265-0.264
		c0-0.145-0.119-0.264-0.264-0.264c-1.019,0-1.85-0.829-1.85-1.85c0-1.021,0.83-1.85,1.85-1.85c0.145,0,0.264,0.117,0.264,0.266
		c0,0.145-0.119,0.264-0.264,0.264c-0.728,0-1.321,0.594-1.321,1.321s0.593,1.319,1.321,1.319c0.437,0,0.792,0.356,0.792,0.793
		C10.679,19.277,10.561,19.394,10.416,19.394z M13.057,14.64c-0.146,0-0.265-0.118-0.265-0.264c0-0.728,0.594-1.321,1.322-1.321
		h1.583c0.729,0,1.321-0.592,1.321-1.32c0-0.729-0.593-1.322-1.321-1.322c-0.145,0-0.266-0.119-0.266-0.264
		c0-0.146,0.117-0.265,0.266-0.265c1.019,0,1.849,0.829,1.849,1.85c0,1.019-0.828,1.849-1.849,1.849h-1.583
		c-0.438,0-0.794,0.356-0.794,0.792C13.321,14.522,13.203,14.64,13.057,14.64z M10.944,14.64c-0.146,0-0.265-0.118-0.265-0.264
		c0-0.438-0.355-0.793-0.792-0.793H8.302c-1.019,0-1.849-0.83-1.849-1.849c0-1.02,0.829-1.85,1.849-1.85
		c0.146,0,0.265,0.119,0.265,0.265c0,0.145-0.119,0.264-0.265,0.264c-0.728,0-1.32,0.592-1.32,1.322c0,0.728,0.592,1.32,1.32,1.32
		h1.585c0.728,0,1.321,0.594,1.321,1.32C11.208,14.522,11.09,14.64,10.944,14.64z M14.114,10.415c-0.728,0-1.322-0.592-1.322-1.321
		c0-0.728,0.594-1.32,1.322-1.32h0.792c0.291,0,0.528-0.237,0.528-0.528V6.453c0-0.145,0.119-0.264,0.266-0.264
		c0.146,0,0.265,0.119,0.265,0.264v0.792c0,0.583-0.475,1.056-1.057,1.056h-0.793c-0.437,0-0.792,0.356-0.792,0.792
		c0,0.438,0.356,0.793,0.792,0.793c0.145,0,0.265,0.118,0.265,0.265C14.377,10.297,14.259,10.415,14.114,10.415z M9.888,10.415
		c-0.146,0-0.265-0.118-0.265-0.264c0-0.146,0.119-0.265,0.265-0.265c0.437,0,0.792-0.356,0.792-0.793
		c0-0.437-0.355-0.793-0.792-0.793H9.095c-0.583,0-1.057-0.473-1.057-1.056V6.453c0-0.145,0.119-0.264,0.265-0.264
		c0.146,0,0.265,0.119,0.265,0.264v0.792c0,0.291,0.237,0.528,0.528,0.528h0.793c0.728,0,1.321,0.592,1.321,1.32
		C11.209,9.823,10.615,10.415,9.888,10.415z M14.114,6.718c-0.438,0-0.794-0.355-0.794-0.793c0-0.146,0.118-0.265,0.266-0.265
		c0.146,0,0.265,0.119,0.265,0.265s0.118,0.265,0.264,0.265c0.145,0,0.265-0.119,0.265-0.265c0-0.728,0.593-1.32,1.321-1.32
		c0.728,0,1.321,0.592,1.321,1.32c0,0.146-0.119,0.265-0.266,0.265s-0.265-0.119-0.265-0.265c0-0.438-0.356-0.793-0.792-0.793
		c-0.438,0-0.794,0.355-0.794,0.793S14.551,6.718,14.114,6.718z M9.888,6.718c-0.438,0-0.793-0.355-0.793-0.793
		S8.74,5.132,8.302,5.132c-0.437,0-0.792,0.355-0.792,0.793c0,0.146-0.119,0.265-0.264,0.265c-0.146,0-0.265-0.119-0.265-0.265
		c0-0.728,0.593-1.32,1.321-1.32c0.729,0,1.321,0.592,1.321,1.32c0,0.146,0.118,0.265,0.265,0.265c0.145,0,0.264-0.119,0.264-0.265
		S10.27,5.66,10.416,5.66c0.145,0,0.264,0.119,0.264,0.265C10.679,6.362,10.325,6.718,9.888,6.718z"/>
</g>
<g id="Number" display="none">
	
		<text transform="matrix(1.1841 0 0 1 21.4678 15.0806)" display="inline" fill="#FFFFFF" font-family="'Menlo-Regular'" font-size="18.9847">1</text>
	
		<text transform="matrix(1.1841 0 0 1 21.4678 15.0806)" display="inline" fill="none" stroke="#000000" stroke-miterlimit="10" font-family="'Menlo-Regular'" font-size="18.9847">1</text>
</g>
</svg>
