<?xml version="1.0" encoding="utf-8"?>
<!-- Generator: Adobe Illustrator 15.1.0, SVG Export Plug-In . SVG Version: 6.00 Build 0)  -->
<!DOCTYPE svg PUBLIC "-//W3C//DTD SVG 1.1//EN" "http://www.w3.org/Graphics/SVG/1.1/DTD/svg11.dtd">
<svg version="1.1" id="Layer_1" xmlns="http://www.w3.org/2000/svg" xmlns:xlink="http://www.w3.org/1999/xlink" x="0px" y="0px"
	 width="36px" height="35.667px" viewBox="0 0 36 35.667" enable-background="new 0 0 36 35.667" xml:space="preserve">
<g id="Loupe">
	<path fill="#F5F200" d="M16.75,32.625c8.818,0,16-7.182,16-16s-7.182-16-16-16h-14c-1.105,0-2,0.895-2,2v14
		C0.75,25.443,7.932,32.625,16.75,32.625z M16.75,29.625c-7.197,0-13-5.803-13-13c0-7.197,5.803-13,13-13s13,5.803,13,13
		C29.75,23.822,23.947,29.625,16.75,29.625z"/>
</g>
<g id="Brain" opacity="0.64">
	<path fill="#F5F200" d="M18.511,27.895c4.388,0,7.49-3.422,8.65-7.595c-0.16-0.096-0.351-0.153-0.55-0.153
		c-0.195,0-0.354-0.157-0.354-0.353c0-0.194,0.157-0.353,0.354-0.353c0.342,0,0.643-0.165,0.836-0.419
		c0.141-0.789,0.221-1.594,0.221-2.398c0-1.051-0.062-2.11-0.221-3.126c-0.193-0.246-0.5-0.396-0.836-0.396
		c-0.195,0-0.354-0.157-0.354-0.352s0.157-0.353,0.354-0.353c0.211,0,0.406-0.069,0.572-0.176c-0.9-3.838-3.132-6.867-7.265-6.867
		c-1.556,0-2.817,1.261-2.817,2.817v6.69c0,0.583,0.474,1.057,1.057,1.057h2.112c0.193,0,0.353,0.157,0.353,0.352
		s-0.158,0.353-0.353,0.353h-2.112c-0.583,0-1.057,0.474-1.057,1.057v4.227c0,0.582,0.474,1.057,1.057,1.057
		c0.194,0,0.352,0.158,0.352,0.353c0,0.195-0.157,0.353-0.352,0.353c-0.583,0-1.057,0.474-1.057,1.057v1.761
		C17.102,27.265,17.732,27.895,18.511,27.895L18.511,27.895L18.511,27.895z M14.989,27.895c0.779,0,1.409-0.631,1.409-1.409v-1.761
		c0-0.582-0.474-1.058-1.057-1.058c-0.194,0-0.353-0.158-0.353-0.352c0-0.195,0.158-0.354,0.353-0.354
		c0.583,0,1.057-0.473,1.057-1.057V17.68c0-0.583-0.474-1.057-1.057-1.057h-2.113c-0.193,0-0.352-0.158-0.352-0.352
		c0-0.195,0.158-0.353,0.352-0.353h2.113c0.583,0,1.057-0.475,1.057-1.057V8.173c0-1.556-1.262-2.816-2.817-2.816
		c-4.132,0-6.363,3.028-7.263,6.866C6.483,12.33,6.678,12.4,6.889,12.4c0.194,0,0.353,0.158,0.353,0.352s-0.158,0.353-0.353,0.353
		c-0.335,0-0.643,0.151-0.836,0.396c-0.156,1.016-0.221,2.075-0.221,3.126c0,0.807,0.08,1.611,0.221,2.399
		c0.192,0.253,0.494,0.419,0.836,0.419c0.194,0,0.353,0.157,0.353,0.352c0,0.195-0.158,0.353-0.353,0.353
		c-0.199,0-0.391,0.06-0.55,0.153C7.5,24.474,10.603,27.895,14.989,27.895L14.989,27.895z M18.863,26.485
		c-0.194,0-0.354-0.157-0.354-0.353c0-0.582,0.475-1.057,1.059-1.057c0.97,0,1.76-0.791,1.76-1.761c0-0.972-0.79-1.763-1.76-1.763
		c-0.194,0-0.354-0.156-0.354-0.352s0.158-0.353,0.354-0.353c1.357,0,2.465,1.106,2.465,2.466s-1.106,2.465-2.465,2.465
		c-0.194,0-0.354,0.158-0.354,0.352C19.216,26.328,19.059,26.485,18.863,26.485z M14.638,26.485c-0.194,0-0.353-0.157-0.353-0.353
		c0-0.193-0.158-0.352-0.352-0.352c-1.359,0-2.466-1.105-2.466-2.466s1.106-2.466,2.466-2.466c0.193,0,0.352,0.158,0.352,0.354
		c0,0.194-0.158,0.352-0.352,0.352c-0.971,0-1.761,0.791-1.761,1.762s0.79,1.76,1.761,1.76c0.582,0,1.056,0.475,1.056,1.057
		C14.989,26.328,14.831,26.485,14.638,26.485z M18.159,20.146c-0.194,0-0.353-0.158-0.353-0.352c0-0.971,0.792-1.762,1.762-1.762
		h2.111c0.971,0,1.762-0.79,1.762-1.76c0-0.972-0.791-1.762-1.762-1.762c-0.193,0-0.353-0.158-0.353-0.352
		c0-0.194,0.157-0.353,0.353-0.353c1.359,0,2.465,1.105,2.465,2.466c0,1.358-1.104,2.465-2.465,2.465h-2.111
		c-0.584,0-1.059,0.475-1.059,1.057C18.511,19.988,18.354,20.146,18.159,20.146z M15.342,20.146c-0.194,0-0.353-0.158-0.353-0.352
		c0-0.584-0.474-1.058-1.056-1.058H11.82c-1.359,0-2.465-1.106-2.465-2.465c0-1.36,1.105-2.466,2.465-2.466
		c0.194,0,0.353,0.158,0.353,0.353c0,0.193-0.158,0.352-0.353,0.352c-0.971,0-1.761,0.79-1.761,1.762c0,0.97,0.79,1.76,1.761,1.76
		h2.113c0.97,0,1.761,0.791,1.761,1.761C15.694,19.988,15.536,20.146,15.342,20.146z M19.568,14.512
		c-0.971,0-1.762-0.79-1.762-1.761c0-0.971,0.792-1.761,1.762-1.761h1.056c0.388,0,0.704-0.316,0.704-0.704V9.229
		c0-0.193,0.158-0.352,0.354-0.352c0.194,0,0.353,0.158,0.353,0.352v1.057c0,0.777-0.632,1.408-1.409,1.408h-1.057
		c-0.582,0-1.058,0.475-1.058,1.057c0,0.583,0.476,1.057,1.058,1.057c0.193,0,0.353,0.158,0.353,0.353
		C19.92,14.354,19.762,14.512,19.568,14.512z M13.934,14.512c-0.194,0-0.353-0.158-0.353-0.352c0-0.194,0.158-0.353,0.353-0.353
		c0.582,0,1.056-0.474,1.056-1.057c0-0.582-0.474-1.057-1.056-1.057h-1.057c-0.777,0-1.409-0.631-1.409-1.408V9.229
		c0-0.193,0.158-0.352,0.353-0.352c0.195,0,0.353,0.158,0.353,0.352v1.057c0,0.388,0.316,0.704,0.704,0.704h1.057
		c0.97,0,1.761,0.79,1.761,1.761C15.696,13.722,14.903,14.512,13.934,14.512z M19.568,9.582c-0.584,0-1.059-0.474-1.059-1.057
		c0-0.194,0.158-0.353,0.354-0.353s0.353,0.158,0.353,0.353s0.158,0.353,0.353,0.353c0.193,0,0.353-0.158,0.353-0.353
		c0-0.971,0.79-1.761,1.761-1.761s1.762,0.79,1.762,1.761c0,0.194-0.158,0.353-0.353,0.353s-0.353-0.158-0.353-0.353
		c0-0.583-0.475-1.057-1.057-1.057c-0.584,0-1.058,0.474-1.058,1.057S20.15,9.582,19.568,9.582z M13.934,9.582
		c-0.583,0-1.057-0.474-1.057-1.057s-0.474-1.057-1.057-1.057s-1.057,0.474-1.057,1.057c0,0.194-0.158,0.353-0.352,0.353
		c-0.194,0-0.353-0.158-0.353-0.353c0-0.971,0.79-1.761,1.761-1.761c0.971,0,1.761,0.79,1.761,1.761
		c0,0.194,0.158,0.353,0.353,0.353c0.193,0,0.352-0.158,0.352-0.353s0.158-0.353,0.353-0.353c0.193,0,0.352,0.158,0.352,0.353
		C14.989,9.108,14.516,9.582,13.934,9.582z"/>
</g>
<g id="Number" display="none">
	
		<text transform="matrix(1.1841 0 0 1 21.4678 15.0806)" display="inline" fill="#FFFFFF" font-family="'Menlo-Regular'" font-size="18.9847">1</text>
	
		<text transform="matrix(1.1841 0 0 1 21.4678 15.0806)" display="inline" fill="none" stroke="#000000" stroke-miterlimit="10" font-family="'Menlo-Regular'" font-size="18.9847">1</text>
</g>
</svg>
